PathFileType	4	(X/Y/Z)	/home/abdul/Desktop/myosuite/custom_workspace/IK/output/S4_12_3.trc
DataRate	CameraRate	NumFrames	NumMarkers	Units	OrigDataRate	OrigDataStartFrame	OrigNumFrames
200.0	200.0	50	3	mm	200.0	347	923
Frame#	Time	V_Shoulder			V_Elbow			V_Wrist		
		X1	Y1	Z1	X2	Y2	Z2	X3	Y3	Z3

347	1.73	-72.60837309156409	574.0942147889231	278.0567623628347	-126.33667718886564	426.42748198001914	30.5117993778246	-54.18734995766445	342.79964397392325	214.98814914824362
348	1.735	-72.73645085581421	574.3511124471988	278.05030028798484	-126.30946768667833	426.456965945607	30.614063220727452	-54.257402355191104	343.99284010040253	215.62812398841436
349	1.74	-72.86459693570798	574.6049229725953	278.04339643355024	-126.28612994066694	426.4904649610247	30.710207847727116	-54.333377567971866	345.1690745118754	216.2465801132683
350	1.745	-72.99279195725741	574.8555823513194	278.03605066841897	-126.26676875140924	426.528113125951	30.800209388848618	-54.41522035813662	346.32806446184156	216.84378851402693
351	1.75	-73.12101549089026	575.1030311027174	278.02826305741564	-126.25148640982886	426.5700428812853	30.88405046309648	-54.502875896739326	347.4695324813759	217.4200280910801
352	1.755	-73.24924605636758	575.3472143115913	278.02003386606765	-126.24038260524233	426.6163847174852	30.961720063547233	-54.596289720448965	348.59320563103086	217.97558492012718
353	1.76	-73.37746113247981	575.588081651841	278.01136356658907	-126.2335543356035	426.6672668622119	31.033213441689416	-54.695407677318926	349.69881472200086	218.5107515071058
354	1.765	-73.50563717143814	575.825587401287	278.00225284505785	-126.23109581940818	426.7228149475793	31.098531992323295	-54.80017586168138	350.78609351024625	219.0258260327622
355	1.77	-73.63374961786683	576.0596904475484	277.9927026097423	-126.23309840867093	426.7831516574363	31.15768314028856	-54.910540538201616	351.8547778674703	219.52111158771237
356	1.775	-73.76177293229075	576.2903542848582	277.982714000524	-126.23965050234486	426.8483963552469	31.210680230230626	-55.026448055121634	352.9046049330212	219.99691539883915
357	1.78	-73.88968061900135	576.517547001712	277.9722883993434	-126.25083745952516	426.91866469327624	31.257542420544866	-55.147844746724004	353.9353122509591	220.45354804786643
358	1.785	-74.0174452581748	576.7412412592603	277.96142744158686	-126.26674151176016	426.994068203932	31.298294582553744	-55.27467682505593	354.94663689667425	220.89132268294526
359	1.79	-74.14503854210541	576.9614142603635	277.9501330283149	-126.28744167378798	427.0747138742529	31.332967205874304	-55.40689026096949	355.9383145975745	221.31055422408446
360	1.795	-74.27243131540831	577.1780477092503	277.9384073392234	-126.31301365202341	427.1607037046813	31.361596310824012	-55.54443065455729	356.91007885247467	221.71155856325544
361	1.8	-74.39959361903657	577.3911277617311	277.92625284621437	-126.34352975013915	427.2521342533989	31.384223368591655	-55.687243095092654	357.86166005441356	222.0946517599993
362	1.805	-74.52649473794851	577.6006449659332	277.9136723274439	-126.37905877111609	427.34909616764855	31.40089522976882	-55.83527201062061	358.7927846217018	222.46014923336554
363	1.81	-74.6531032522535	577.8065941935453	277.90066888170355	-126.41966591517982	427.45167370360156	31.41166406169627	-55.98846100738818	359.70317414205863	222.80836495101585
364	1.815	-74.77938709165583	578.0089745615728	277.8872459429829	-126.46541267309334	427.55994423646564	31.416587294930977	-56.14675269935131	360.5925445347314	223.13961061633194
365	1.82	-74.90531359300898	578.2077893446252	277.87340729505394	-126.5163567143388	427.67397776266176	31.415727578984253	-56.31008852804913	361.46060523550943	223.4541948543764
366	1.825	-75.03084956078516	578.4030458777761	277.85915708590846	-126.57255176979221	427.79383639601974	31.409152747321222	-56.478408573194514	362.30705840953647	223.75242239756824
367	1.83	-75.15596133025755	578.5947554500561	277.8444998418773	-126.63404750857515	427.91957386006516	31.396935791448882	-56.65165135439124	363.13159819680175	224.03459327195202
368	1.835	-75.28061483318693	578.7829331886593	277.82944048125177	-126.70088940885285	428.05123497857664	31.379154843755316	-56.829753624453566	363.9339099951441	224.30100198495998
369	1.84	-75.40477566579638	578.9675979339681	277.8139843272292	-126.77311862243954	428.1888551666992	31.355893168598993	-57.012650154870975	364.7136697855336	224.55193671559198
370	1.845	-75.52840915881335	579.1487721055205	277.7981371199971	-126.8507718331678	428.3324599249898	31.327239160985798	-57.20027351403047	365.4705435043107	224.78767850796777
371	1.85	-75.65148044935104	579.3264815590679	277.7819050277751	-126.93388110907614	428.48206433885605	31.29328635201474	-57.392553838878655	366.2041864669543	225.00850046924143
372	1.855	-75.77395455439631	579.5007554348996	277.7652946566297	-127.02247374857126	428.6376725859203	31.25413342012307	-57.58941860077675	366.91424284782113	225.21466697290586
373	1.86	-75.89579644566608	579.6716259976296	277.748313058883	-127.11657212082017	428.7992774539018	31.209884207019414	-57.790792366372365	367.6003452201526	225.4064328685614
374	1.865	-76.01697112558882	579.8391284676674	277.73096773993666	-127.21619350072933	428.9668598716588	31.160647737061517	-57.996596554381576	368.2621141604783	225.5840426992701
375	1.87	-76.13744370416377	580.003300844627	277.7132666633388	-127.32134989896652	429.14038845606456	31.106538238714577	-58.20674918924386	368.89915792136037	225.74772992767407
376	1.875	-76.25717947644621	580.1641837229453	277.6952182539265	-127.43204788757704	429.3198190774183	31.04767516661868	-58.421164652679195	369.51107217622007	225.8977161721142
377	1.88	-76.3761440004033	580.3218201000161	277.6768313988852	-127.54828842184028	429.5050944460949	30.98418322270053	-58.639753434242216	370.09743983976455	226.03421045405193
378	1.885	-76.49430317488195	580.4762551771704	277.6581154465722	-127.67006665910068	429.6961437231339	30.916192374686826	-58.86242188203067	370.65783096729956	226.1574084581652
379	1.89	-76.61162331742729	580.6275361538595	277.63908020296464	-127.79737177539256	429.89288215744625	30.843837870315056	-59.089071954765856	371.191802735955	226.26749180656583
380	1.895	-76.72807124168827	580.7757120154308	277.6197359255996	-127.93018678075731	430.0952107522828	30.76726024549283	-59.319600976519936	371.6988995105842	226.36462734866205
381	1.9	-76.84361433414524	580.9208333149087	277.6000933148901	-128.06848833422492	430.3030159635577	30.686605324629696	-59.5539013954192	372.1786529968132	226.44896646827573
382	1.905	-76.95822062989335	581.0629519492262	277.5801635027096	-128.21224655949965	430.51616943255317	30.602024211356046	-59.79186054770284	372.6305824834171	226.5206444097081
383	1.91	-77.07185888721519	581.2021209303766	277.5599580381574	-128.36142486245086	430.7345277554552	30.513673267852347	-60.033360428564606	373.05419517589354	226.5797796245388
384	1.915	-77.18449866067675	581.3383941519886	277.5394888704264	-128.51597975156417	430.9579322920723	30.42171408103804	-60.278277471247776	373.44898662277524	226.62647314103413
385	1.92	-77.29611037248183	581.4718261518475	277.5187683287176	-128.6758606625561	431.18620901598143	30.32631341391359	-60.52648233590362	373.814441235891	226.66080795813517
386	1.925	-77.40666538182194	581.6024718709232	277.49780909915677	-128.84100978839467	431.41916840822125	30.22764314040991	-60.7778397097583	374.15003290543746	226.68284846608918
387	1.93	-77.51613605196165	581.7303864094808	277.4766241986925	-129.01136191600386	431.65660539652	30.12588016217708	-61.03220812016446	374.4552257103676	226.69263989588433
388	1.935	-77.62449581480332	581.8556247808878	277.4552269459684	-129.18684427095258	431.89829934188896	30.021206305837225	-61.28943976213867	374.72947472423596	226.69020779973846
389	1.94	-77.73171923267942	581.9782416637444	277.4336309291852	-129.3673763714505	432.14401407425686	29.913808199334888	-61.54938034200666	374.9722269162665	226.67555756498555
390	1.945	-77.83778205712689	582.0982911530024	277.41184997098736	-129.55286989298176	432.39349797864145	29.803877126140073	-61.811868938792706	375.1829221470267	226.64867396378833
391	1.95	-77.94266128440405	582.215826510746	277.3898980904276	-129.74322854491152	432.64648413317263	29.691608856194176	-62.07673788499775	375.360994257703	226.60952074119044
392	1.955	-78.04633520751922	582.330899917342	277.3677894620863	-129.93834796039584	432.90269050008396	29.57720345263543	-62.34381266841207	375.50587225158006	226.55804024409517
393	1.96	-78.14878346454785	582.4435622236819	277.3455383724404	-130.13811560091332	433.16182017058566	29.460865053497532	-62.61291185660262	375.61698156592547	226.49415309382874
394	1.965	-78.2499870830262	582.5538627052568	277.3231591736003	-130.3424106767161	433.42356166431756	29.34280162774113	-62.883847045700364	375.6937454320821	226.41775790500412
395	1.97	-78.3499285202195	582.6618488188277	277.30066623455224	-130.55110408446967	433.68758928386137	29.223224705151765	-63.15642283509067	375.7355863211661	226.3287310534521
396	1.975	-78.44859169907538	582.7675659624623	277.2780738900652	-130.7640583633153	433.9535635245608	29.102349079817806	-63.430436829576735	375.7419274723636	226.22692649602303
